Coordinates
version=1
nRows=14
nColumns=40
inDegrees=yes

Units are S.I. units (second, meters, Newtons, ...)
If the header above contains a line with 'inDegrees', this indicates whether rotational values are in degrees (yes) or radians (no).

endheader
time	pelvis_tilt	pelvis_list	pelvis_rotation	pelvis_tx	pelvis_ty	pelvis_tz	hip_flexion_r	hip_adduction_r	hip_rotation_r	knee_angle_r	knee_angle_r_beta	ankle_angle_r	subtalar_angle_r	mtp_angle_r	hip_flexion_l	hip_adduction_l	hip_rotation_l	knee_angle_l	knee_angle_l_beta	ankle_angle_l	subtalar_angle_l	mtp_angle_l	lumbar_extension	lumbar_bending	lumbar_rotation	arm_flex_r	arm_add_r	arm_rot_r	elbow_flex_r	pro_sup_r	wrist_flex_r	wrist_dev_r	arm_flex_l	arm_add_l	arm_rot_l	elbow_flex_l	pro_sup_l	wrist_flex_l	wrist_dev_l
      1.86500000	    -17.48179616	     -1.03753843	     -2.64999897	      0.17197786	      0.72871411	     -1.20301653	     61.24820213	    -33.98134827	    -15.68968839	     72.12932719	      1.25889425	     16.22023325	     -3.83658848	      0.00000000	     62.77149665	    -39.92726889	    -15.56488614	     72.99964214	      1.27408411	     18.03770986	      3.43958552	      0.00000000	    -11.38930538	      0.82532154	     -2.22742870	     44.99992433	    -14.99999999	     44.99992433	     75.00017585	     45.00000026	      0.00000000	      0.00000000	     44.99992433	    -14.99999999	     44.99992433	     75.00017585	     45.00000026	      0.00000000	      0.00000000
      1.87000000	    -17.31606036	     -0.96286441	     -2.74727928	      0.17290779	      0.73463948	     -1.20274118	     60.21989274	    -33.59143090	    -16.06331670	     70.88423739	      1.23716333	     15.84666058	     -4.11281321	      0.00000000	     61.43246476	    -39.65766558	    -16.40656295	     71.72200010	      1.25178505	     17.67569942	      3.27383254	      0.00000000	    -11.39847277	      0.76467765	     -2.12898414	     44.99992433	    -14.99999999	     44.99992433	     75.00017585	     45.00000026	      0.00000000	      0.00000000	     44.99992433	    -14.99999999	     44.99992433	     75.00017585	     45.00000026	      0.00000000	      0.00000000
      1.87500000	    -17.61470334	     -0.92306768	     -2.81015100	      0.17348672	      0.73902019	     -1.20255487	     59.80802638	    -33.25190281	    -16.43535323	     69.80252666	      1.21828392	     15.41474608	     -4.19790591	      0.00000000	     60.89972728	    -39.37685277	    -16.93814433	     70.66551702	      1.23334594	     17.25598058	      3.09614532	      0.00000000	    -10.73938654	      0.71996444	     -2.08831366	     44.99992433	    -14.99999999	     44.99992433	     75.00017585	     45.00000026	      0.00000000	      0.00000000	     44.99992433	    -14.99999999	     44.99992433	     75.00017585	     45.00000026	      0.00000000	      0.00000000
      1.88000000	    -16.93388700	     -0.83132435	     -2.93970722	      0.17504464	      0.74632125	     -1.20222824	     58.08277827	    -32.88477165	    -16.90544539	     68.37689005	      1.19340186	     15.01190401	     -4.31693602	      0.00000000	     58.73766297	    -39.18191867	    -18.17158432	     69.21597810	      1.20804671	     16.87816403	      3.13667785	      0.00000000	    -11.42340291	      0.56803953	     -1.88869248	     44.99992433	    -14.99999999	     44.99992433	     75.00017585	     45.00000026	      0.00000000	      0.00000000	     44.99992433	    -14.99999999	     44.99992433	     75.00017585	     45.00000026	      0.00000000	      0.00000000
      1.88500000	    -17.02744604	     -0.78451802	     -3.02829134	      0.17575420	      0.75124939	     -1.20201682	     57.41675719	    -32.50062037	    -17.25679016	     67.19940412	      1.17285086	     14.48028695	     -4.67596371	      0.00000000	     57.88552015	    -38.88049109	    -18.79646536	     68.04975867	      1.18769234	     16.42160478	      2.72019525	      0.00000000	    -11.03517957	      0.52517272	     -1.83192491	     44.99992433	    -14.99999999	     44.99992433	     75.00017585	     45.00000026	      0.00000000	      0.00000000	     44.99992433	    -14.99999999	     44.99992433	     75.00017585	     45.00000026	      0.00000000	      0.00000000
      1.89000000	    -16.82707123	     -0.73368428	     -3.12311685	      0.17677020	      0.75699978	     -1.20180383	     56.34530417	    -32.12051742	    -17.64457981	     65.91147825	      1.15037231	     14.04070633	     -4.86339358	      0.00000000	     56.56030601	    -38.58981742	    -19.59110992	     66.74754447	      1.16496442	     16.00909030	      2.61404199	      0.00000000	    -11.08337971	      0.47816307	     -1.75765031	     44.99992433	    -14.99999999	     44.99992433	     75.00017585	     45.00000026	      0.00000000	      0.00000000	     44.99992433	    -14.99999999	     44.99992433	     75.00017585	     45.00000026	      0.00000000	      0.00000000
      1.89500000	    -16.60189625	     -0.67791932	     -3.19770022	      0.17797615	      0.76269888	     -1.20163955	     55.22141115	    -31.78406286	    -18.06521619	     64.61358507	      1.12771980	     13.60780705	     -4.90941965	      0.00000000	     55.20337487	    -38.30841025	    -20.45610974	     65.46326040	      1.14254943	     15.59495652	      2.63867086	      0.00000000	    -11.13659764	      0.40775284	     -1.66418925	     44.99992433	    -14.99999999	     44.99992433	     75.00017585	     45.00000026	      0.00000000	      0.00000000	     44.99992433	    -14.99999999	     44.99992433	     75.00017585	     45.00000026	      0.00000000	      0.00000000
      1.90000000	    -16.76045847	     -0.64980462	     -3.28351788	      0.17869513	      0.76721816	     -1.20143782	     54.64466576	    -31.39579308	    -18.40333054	     63.44123286	      1.10725839	     13.05886425	     -5.09145305	      0.00000000	     54.49229951	    -38.00944115	    -21.00978773	     64.31172394	      1.12245133	     15.11750122	      2.33188690	      0.00000000	    -10.68245954	      0.36431744	     -1.62272650	     44.99992433	    -14.99999999	     44.99992433	     75.00017585	     45.00000026	      0.00000000	      0.00000000	     44.99992433	    -14.99999999	     44.99992433	     75.00017585	     45.00000026	      0.00000000	      0.00000000
      1.90500000	    -16.38498219	     -0.61109162	     -3.35147648	      0.17997619	      0.77324570	     -1.20133716	     53.31757516	    -31.01896478	    -18.80623513	     62.05217694	      1.08301480	     12.64553601	     -5.34255842	      0.00000000	     52.94509055	    -37.67770570	    -21.86020259	     62.94078351	      1.09852391	     14.72454600	      2.24579328	      0.00000000	    -10.96852740	      0.33421898	     -1.56682949	     44.99992433	    -14.99999999	     44.99992433	     75.00017585	     45.00000026	      0.00000000	      0.00000000	     44.99992433	    -14.99999999	     44.99992433	     75.00017585	     45.00000026	      0.00000000	      0.00000000
      1.91000000	    -16.17601555	     -0.57005465	     -3.42863684	      0.18115066	      0.77866363	     -1.20119776	     52.23288064	    -30.66802527	    -19.20706561	     60.73631848	      1.06004873	     12.15956074	     -5.37671062	      0.00000000	     51.66251939	    -37.36207103	    -22.63661632	     61.63719463	      1.07577199	     14.26787943	      2.22833936	      0.00000000	    -10.97873580	      0.27728734	     -1.50380671	     44.99992433	    -14.99999999	     44.99992433	     75.00017585	     45.00000026	      0.00000000	      0.00000000	     44.99992433	    -14.99999999	     44.99992433	     75.00017585	     45.00000026	      0.00000000	      0.00000000
      1.91500000	    -16.02690253	     -0.53147114	     -3.49634792	      0.18226427	      0.78381574	     -1.20107204	     51.23889178	    -30.31042030	    -19.57192733	     59.44689903	      1.03754412	     11.68139074	     -5.50236575	      0.00000000	     50.49561266	    -37.02663591	    -23.34722597	     60.35777697	      1.05344194	     13.82535127	      2.13658092	      0.00000000	    -10.92637672	      0.23418135	     -1.45860817	     44.99992433	    -14.99999999	     44.99992433	     75.00017585	     45.00000026	      0.00000000	      0.00000000	     44.99992433	    -14.99999999	     44.99992433	     75.00017585	     45.00000026	      0.00000000	      0.00000000
      1.92000000	    -15.80307893	     -0.48899994	     -3.55310981	      0.18350225	      0.78908729	     -1.20098226	     50.13810207	    -29.98017712	    -19.97207183	     58.11665725	      1.01432702	     11.21196894	     -5.52898962	      0.00000000	     49.22176667	    -36.67913131	    -24.10287571	     59.04378709	      1.03050849	     13.37362335	      2.18670541	      0.00000000	    -10.98198519	      0.18229989	     -1.41288598	     44.99992433	    -14.99999999	     44.99992433	     75.00017585	     45.00000026	      0.00000000	      0.00000000	     44.99992433	    -14.99999999	     44.99992433	     75.00017585	     45.00000026	      0.00000000	      0.00000000
      1.92500000	    -15.63370334	     -0.44399912	     -3.59945419	      0.18470256	      0.79411912	     -1.20092595	     49.11305540	    -29.64567811	    -20.32677803	     56.79067965	      0.99118434	     10.71829664	     -5.60352887	      0.00000000	     48.05370070	    -36.30777035	    -24.80079144	     57.75952811	      1.00809394	     12.90806216	      2.14534933	      0.00000000	    -10.95707565	      0.13737281	     -1.38214756	     44.99992433	    -14.99999999	     44.99992433	     75.00017585	     45.00000026	      0.00000000	      0.00000000	     44.99992433	    -14.99999999	     44.99992433	     75.00017585	     45.00000026	      0.00000000	      0.00000000
      1.93000000	    -15.44786681	     -0.40816388	     -3.64565062	      0.18588425	      0.79909368	     -1.20087407	     48.07433809	    -29.31021195	    -20.70724851	     55.46646678	      0.96807247	     10.22069202	     -5.67343395	      0.00000000	     46.88194360	    -35.93435193	    -25.48923767	     56.45416667	      0.98531108	     12.44036911	      2.10395114	      0.00000000	    -10.94684997	      0.09528482	     -1.36287503	     44.99992433	    -14.99999999	     44.99992433	     75.00017585	     45.00000026	      0.00000000	      0.00000000	     44.99992433	    -14.99999999	     44.99992433	     75.00017585	     45.00000026	      0.00000000	      0.00000000
